<?xml version="1.0" encoding="utf-8"?>
<svg id="svg" version="1.1" xmlns="http://www.w3.org/2000/svg" width="400" height="400" viewBox="0, 0, 400,400">
  <g id="svgg">
    <path id="path0" d="M190.686 10.170 C 131.810 14.751,78.317 46.245,46.300 95.177 L 43.967 98.742 40.908 99.009 C 37.227 99.330,37.634 98.582,35.988 108.060 C 34.879 114.441,34.563 115.558,32.807 119.309 C 19.035 148.728,12.729 184.038,15.572 215.820 L 16.061 221.289 9.787 256.802 C 6.336 276.334,3.557 292.358,3.612 292.411 C 3.808 292.602,26.130 294.518,33.203 294.951 C 37.730 295.228,40.543 295.561,40.733 295.841 C 40.900 296.088,42.403 298.486,44.073 301.172 C 87.401 370.864,171.829 404.680,251.367 384.200 C 345.365 359.997,406.421 267.637,391.797 171.772 L 390.996 166.523 392.159 163.930 C 401.762 142.527,394.037 120.457,372.790 108.594 C 369.828 106.940,369.543 106.662,367.979 103.906 C 338.615 52.164,284.368 17.357,222.461 10.537 C 217.341 9.973,196.338 9.730,190.686 10.170 M190.013 27.441 C 190.162 28.368,195.445 90.842,196.198 100.586 C 196.284 101.691,196.200 101.764,194.727 101.873 C 193.867 101.936,191.641 102.228,189.779 102.521 C 186.450 103.044,186.322 103.034,182.161 101.912 C 157.108 95.156,121.100 93.288,74.070 96.304 C 68.939 96.633,64.681 96.842,64.607 96.769 C 64.534 96.695,65.900 94.799,67.643 92.556 C 95.752 56.375,136.630 32.957,182.422 26.803 C 189.225 25.889,189.770 25.935,190.013 27.441 M233.019 27.725 C 277.228 35.178,320.421 62.016,344.464 96.973 C 345.919 99.087,345.891 99.102,341.920 98.271 C 319.952 93.676,254.464 94.101,218.062 99.076 C 215.427 99.436,213.197 99.655,213.104 99.563 C 213.012 99.471,214.418 82.964,216.227 62.881 C 218.037 42.799,219.520 26.297,219.524 26.212 C 219.540 25.852,226.614 26.646,233.019 27.725 M135.742 106.252 C 209.100 110.095,241.734 138.585,232.787 190.975 C 224.600 238.916,190.195 269.877,133.594 280.238 C 113.875 283.848,99.205 284.958,71.484 284.938 C 51.332 284.924,43.990 284.670,26.367 283.381 C 15.332 282.574,16.416 283.012,17.014 279.596 C 28.558 213.684,47.002 109.886,47.207 109.675 C 47.865 109.000,74.889 106.904,90.820 106.293 C 102.924 105.829,127.243 105.807,135.742 106.252 M314.453 106.256 C 359.271 108.543,383.689 121.472,385.048 143.635 C 386.179 162.072,371.637 178.212,346.240 186.709 C 343.114 187.755,340.466 188.701,340.356 188.811 C 340.167 188.999,341.021 189.264,345.020 190.256 C 395.000 202.656,388.267 254.898,334.180 274.363 C 310.324 282.948,273.190 286.501,225.546 284.757 C 211.572 284.246,192.252 282.944,191.471 282.462 C 191.149 282.263,192.212 274.737,193.169 270.443 C 193.282 269.938,194.655 268.692,196.581 267.349 C 248.679 231.005,261.579 154.673,221.238 121.446 L 219.625 120.117 220.591 114.844 C 221.122 111.943,221.595 109.530,221.642 109.481 C 221.886 109.226,238.191 107.767,246.875 107.222 C 267.243 105.945,299.362 105.485,314.453 106.256 M281.850 139.122 C 279.709 139.310,277.849 139.594,277.717 139.752 C 277.585 139.910,276.117 147.861,274.454 157.422 C 272.792 166.982,271.336 175.138,271.219 175.544 C 270.950 176.476,288.424 176.247,295.117 175.232 C 310.806 172.852,319.970 166.518,321.891 156.727 C 324.586 142.986,310.134 136.632,281.850 139.122 M110.547 141.021 C 103.941 141.476,103.175 141.645,102.931 142.693 C 102.820 143.167,98.598 167.021,93.548 195.703 C 88.498 224.385,84.289 248.062,84.195 248.320 C 83.520 250.170,105.062 249.683,115.234 247.617 C 139.572 242.675,156.915 227.352,164.266 204.297 C 177.716 162.116,157.085 137.816,110.547 141.021 M306.445 150.578 C 315.929 153.253,310.824 160.745,297.388 163.868 L 295.234 164.369 294.409 162.360 C 293.955 161.255,292.440 158.066,291.041 155.273 C 289.643 152.480,288.428 150.043,288.342 149.857 C 288.049 149.222,303.874 149.853,306.445 150.578 M119.141 151.703 C 119.141 151.781,118.012 154.197,116.633 157.074 C 112.382 165.941,109.220 176.643,108.110 185.918 C 107.651 189.759,107.619 189.844,106.631 189.844 L 105.620 189.844 108.957 170.909 C 111.530 156.311,112.429 151.938,112.885 151.814 C 113.631 151.611,119.141 151.513,119.141 151.703 M376.818 183.772 C 376.569 184.423,375.391 184.614,375.391 184.004 C 375.391 183.601,376.657 182.776,376.900 183.020 C 376.983 183.102,376.946 183.441,376.818 183.772 M108.278 212.095 C 109.377 219.900,111.499 228.232,113.884 234.101 C 114.573 235.795,114.720 236.554,114.400 236.752 C 113.614 237.237,106.132 238.262,101.401 238.532 L 96.830 238.794 97.045 237.854 C 97.164 237.337,98.325 230.762,99.627 223.242 C 102.582 206.172,102.101 207.670,104.718 207.391 C 105.883 207.267,107.008 207.193,107.218 207.226 C 107.429 207.259,107.906 209.450,108.278 212.095 M265.586 208.301 C 264.712 210.502,258.090 250.916,258.571 251.115 C 260.013 251.712,281.377 251.349,285.352 250.660 C 301.574 247.848,311.048 241.090,313.522 230.566 C 316.010 219.980,308.751 212.424,293.359 209.577 C 288.518 208.682,265.849 207.640,265.586 208.301 M300.642 223.254 C 305.316 225.994,303.076 232.295,296.073 236.106 C 293.537 237.486,293.542 237.497,295.112 233.580 C 295.841 231.761,296.931 228.472,297.535 226.271 C 298.139 224.070,298.705 222.268,298.794 222.267 C 298.882 222.266,299.714 222.711,300.642 223.254 M357.866 279.126 C 333.280 326.096,288.572 359.423,236.914 369.290 C 231.556 370.313,219.128 371.993,218.865 371.729 C 218.678 371.543,212.504 299.244,212.502 297.221 L 212.500 295.810 215.137 295.585 C 216.587 295.461,224.871 295.539,233.547 295.759 C 293.070 297.263,332.298 290.715,357.617 275.051 C 359.336 273.987,360.782 273.156,360.831 273.204 C 360.880 273.251,359.546 275.916,357.866 279.126 M163.321 287.059 C 172.023 291.135,181.457 293.966,190.309 295.158 C 196.620 296.008,196.202 295.830,195.940 297.559 C 195.817 298.365,194.300 315.020,192.568 334.570 C 188.845 376.589,189.522 371.913,187.202 371.643 C 145.219 366.742,110.346 350.052,81.641 321.122 C 74.323 313.747,61.010 297.643,60.946 296.089 C 60.941 295.979,67.310 295.863,75.098 295.830 C 99.360 295.729,118.151 294.130,136.617 290.593 C 142.462 289.474,157.740 285.750,158.144 285.346 C 158.549 284.941,159.401 285.222,163.321 287.059 " stroke="none" fill="#fafbfb" fill-rule="evenodd"/>
    <path id="path1" d="M219.755 27.046 C 219.425 28.624,216.328 65.586,216.486 66.060 C 216.570 66.313,216.970 62.953,217.373 58.594 L 218.107 50.669 228.623 40.155 C 238.758 30.024,239.184 29.651,240.371 29.887 C 241.048 30.022,243.781 30.650,246.445 31.284 C 249.109 31.917,251.362 32.362,251.451 32.273 C 252.045 31.679,230.888 27.378,224.414 26.776 C 222.910 26.637,221.288 26.441,220.810 26.342 C 220.146 26.204,219.896 26.371,219.755 27.046 M216.127 68.555 C 216.130 69.629,216.206 70.022,216.296 69.428 C 216.386 68.834,216.383 67.956,216.291 67.475 C 216.198 66.995,216.124 67.480,216.127 68.555 M215.724 72.852 C 215.728 73.711,215.808 74.017,215.901 73.531 C 215.995 73.045,215.991 72.342,215.893 71.968 C 215.796 71.595,215.719 71.992,215.724 72.852 M215.325 77.344 C 215.325 78.096,215.405 78.403,215.504 78.027 C 215.602 77.651,215.602 77.036,215.504 76.660 C 215.405 76.284,215.325 76.592,215.325 77.344 M94.629 106.530 C 95.220 106.619,96.187 106.619,96.777 106.530 C 97.368 106.440,96.885 106.367,95.703 106.367 C 94.521 106.367,94.038 106.440,94.629 106.530 M133.110 106.526 C 133.596 106.620,134.299 106.616,134.673 106.518 C 135.046 106.421,134.648 106.344,133.789 106.349 C 132.930 106.353,132.624 106.433,133.110 106.526 M262.891 106.665 C 246.514 107.355,225.083 108.982,222.675 109.720 C 221.790 109.991,221.650 110.397,220.837 115.012 L 219.956 120.011 222.185 122.001 C 242.229 139.904,249.242 165.044,242.963 196.484 C 237.102 225.826,221.268 250.236,197.006 267.332 L 193.555 269.763 192.502 275.604 C 191.923 278.817,191.439 281.639,191.427 281.875 C 191.360 283.248,217.647 284.518,246.680 284.545 C 315.842 284.610,351.862 274.325,370.286 249.252 C 388.441 224.545,376.623 198.164,343.848 190.236 C 339.086 189.084,339.243 188.763,345.605 186.647 C 371.453 178.050,385.426 162.854,384.675 144.158 C 383.849 123.601,363.348 110.936,324.805 107.171 C 317.424 106.450,276.036 106.112,262.891 106.665 M84.673 106.917 C 85.158 107.010,85.862 107.007,86.235 106.909 C 86.608 106.811,86.211 106.735,85.352 106.739 C 84.492 106.743,84.187 106.823,84.673 106.917 M96.875 106.889 C 77.854 107.591,47.656 109.740,47.656 110.392 C 47.656 110.465,44.503 128.416,40.649 150.282 C 36.795 172.149,33.379 191.533,33.058 193.359 C 32.737 195.186,31.416 202.656,30.122 209.961 C 20.555 263.958,17.569 281.395,17.846 281.655 C 18.448 282.220,41.243 283.611,57.381 284.067 C 90.836 285.012,117.945 283.007,140.930 277.890 C 143.354 277.350,145.727 277.018,146.204 277.152 C 146.805 277.320,146.909 277.283,146.544 277.030 C 145.887 276.574,151.278 275.169,151.991 275.610 C 152.272 275.783,152.363 275.738,152.216 275.500 C 151.902 274.992,155.229 274.025,155.889 274.432 C 156.167 274.604,156.271 274.569,156.135 274.349 C 155.839 273.870,161.170 272.122,161.780 272.499 C 162.078 272.683,162.123 272.604,161.913 272.264 C 161.677 271.883,161.812 271.808,162.439 271.972 C 162.903 272.094,163.193 272.048,163.083 271.870 C 162.809 271.426,165.500 270.580,166.068 270.931 C 166.344 271.102,166.423 271.046,166.266 270.792 C 165.949 270.280,167.387 269.758,168.026 270.152 C 168.290 270.316,168.375 270.264,168.229 270.028 C 167.908 269.508,170.110 268.579,170.740 268.968 C 171.023 269.143,171.114 269.098,170.964 268.856 C 170.643 268.336,172.845 267.407,173.474 267.796 C 173.798 267.997,173.848 267.926,173.629 267.572 C 173.395 267.193,173.489 267.124,173.980 267.312 C 174.431 267.485,174.559 267.422,174.370 267.117 C 174.182 266.812,174.309 266.748,174.761 266.921 C 175.213 267.095,175.340 267.031,175.152 266.726 C 174.963 266.421,175.090 266.357,175.542 266.531 C 175.994 266.704,176.121 266.640,175.933 266.335 C 175.744 266.030,175.872 265.967,176.323 266.140 C 176.775 266.313,176.903 266.250,176.714 265.945 C 176.526 265.640,176.653 265.576,177.105 265.749 C 177.556 265.923,177.684 265.859,177.495 265.554 C 177.307 265.249,177.434 265.185,177.886 265.359 C 178.338 265.532,178.465 265.468,178.277 265.164 C 178.088 264.859,178.215 264.795,178.667 264.968 C 179.119 265.142,179.246 265.078,179.058 264.773 C 178.869 264.468,178.997 264.404,179.448 264.578 C 179.900 264.751,180.028 264.687,179.839 264.382 C 179.651 264.077,179.778 264.014,180.230 264.187 C 180.608 264.332,180.801 264.285,180.673 264.078 C 180.372 263.590,181.925 262.779,182.490 263.128 C 182.782 263.309,182.824 263.225,182.613 262.885 C 182.379 262.506,182.473 262.436,182.964 262.624 C 183.343 262.770,183.536 262.722,183.408 262.515 C 183.107 262.028,184.660 261.216,185.225 261.566 C 185.489 261.729,185.560 261.666,185.401 261.408 C 185.087 260.900,186.556 260.010,187.127 260.363 C 187.343 260.496,187.471 260.372,187.412 260.088 C 187.353 259.803,187.605 259.594,187.973 259.622 C 188.341 259.650,188.604 259.475,188.559 259.231 C 188.514 258.988,188.782 258.813,189.156 258.843 C 189.530 258.872,189.756 258.768,189.660 258.612 C 189.382 258.163,191.763 256.574,192.256 256.878 C 192.510 257.035,192.592 256.979,192.447 256.745 C 192.106 256.193,193.209 255.330,193.793 255.691 C 194.071 255.863,194.159 255.815,194.010 255.573 C 193.669 255.021,194.771 254.158,195.356 254.519 C 195.630 254.688,195.722 254.643,195.577 254.409 C 195.262 253.899,196.606 252.666,197.314 252.816 C 197.610 252.878,197.815 252.731,197.769 252.488 C 197.673 251.968,198.922 250.757,199.673 250.643 C 200.478 250.521,201.205 249.979,201.003 249.652 C 200.774 249.281,207.616 242.438,208.023 242.631 C 208.189 242.709,208.371 242.450,208.429 242.056 C 208.563 241.146,209.719 239.849,210.300 239.957 C 210.543 240.002,210.691 239.797,210.628 239.502 C 210.478 238.794,211.712 237.449,212.222 237.765 C 212.456 237.909,212.501 237.817,212.331 237.543 C 211.970 236.959,212.834 235.856,213.386 236.197 C 213.627 236.347,213.675 236.259,213.503 235.981 C 213.142 235.396,214.006 234.294,214.558 234.635 C 214.791 234.779,214.848 234.698,214.691 234.444 C 214.344 233.882,216.007 231.589,216.529 231.912 C 216.743 232.044,216.801 231.963,216.657 231.731 C 216.301 231.154,217.944 228.454,218.458 228.772 C 218.697 228.920,218.756 228.841,218.597 228.584 C 218.221 227.976,219.077 226.477,219.611 226.807 C 219.869 226.966,219.932 226.895,219.769 226.631 C 219.420 226.066,220.231 224.513,220.718 224.814 C 220.925 224.942,220.973 224.749,220.828 224.370 C 220.654 223.919,220.718 223.791,221.023 223.980 C 221.328 224.168,221.392 224.041,221.218 223.589 C 221.030 223.098,221.100 223.004,221.478 223.238 C 221.812 223.444,221.902 223.407,221.733 223.133 C 221.409 222.609,223.060 219.103,223.502 219.375 C 223.676 219.483,223.703 219.270,223.562 218.902 C 223.389 218.450,223.452 218.322,223.757 218.511 C 224.062 218.699,224.126 218.572,223.953 218.120 C 223.764 217.629,223.834 217.536,224.213 217.770 C 224.566 217.988,224.637 217.939,224.437 217.615 C 224.048 216.985,224.977 214.783,225.496 215.104 C 225.733 215.250,225.785 215.165,225.621 214.901 C 225.226 214.262,225.748 212.824,226.260 213.141 C 226.513 213.297,226.570 213.220,226.402 212.947 C 226.050 212.377,226.504 210.855,226.945 211.128 C 227.124 211.239,227.172 210.950,227.050 210.486 C 226.886 209.858,226.961 209.724,227.343 209.960 C 227.681 210.169,227.761 210.125,227.578 209.829 C 227.200 209.217,228.552 205.054,229.032 205.351 C 229.246 205.484,229.295 205.391,229.141 205.142 C 228.989 204.896,229.385 202.628,230.020 200.102 C 234.102 183.871,234.262 167.178,230.451 155.279 C 229.794 153.229,229.381 151.352,229.533 151.106 C 229.691 150.850,229.636 150.767,229.403 150.911 C 228.883 151.232,227.954 149.030,228.343 148.401 C 228.543 148.077,228.472 148.027,228.119 148.246 C 227.740 148.480,227.671 148.386,227.859 147.895 C 228.032 147.444,227.968 147.316,227.664 147.505 C 227.359 147.693,227.295 147.566,227.468 147.114 C 227.642 146.662,227.578 146.535,227.273 146.723 C 226.968 146.912,226.904 146.785,227.078 146.333 C 227.251 145.881,227.187 145.754,226.882 145.942 C 226.577 146.131,226.514 146.003,226.687 145.552 C 226.832 145.173,226.785 144.980,226.578 145.108 C 226.116 145.393,225.270 143.870,225.597 143.342 C 225.730 143.126,225.607 142.998,225.322 143.057 C 225.037 143.116,224.828 142.863,224.856 142.496 C 224.885 142.128,224.709 141.865,224.466 141.910 C 224.222 141.955,224.047 141.691,224.075 141.324 C 224.104 140.956,223.928 140.693,223.685 140.738 C 223.441 140.783,223.266 140.515,223.296 140.141 C 223.325 139.767,223.213 139.546,223.047 139.648 C 222.572 139.942,221.775 138.759,222.097 138.238 C 222.267 137.964,222.221 137.872,221.988 138.016 C 221.500 138.317,220.298 137.055,220.133 136.069 C 220.067 135.675,219.846 135.386,219.640 135.428 C 219.435 135.470,218.322 134.547,217.167 133.377 C 216.011 132.207,215.213 131.250,215.393 131.250 C 215.573 131.250,215.511 130.997,215.254 130.687 C 214.997 130.378,214.569 130.208,214.302 130.310 C 213.834 130.490,212.687 129.510,212.430 128.711 C 212.361 128.496,212.154 128.370,211.971 128.432 C 211.504 128.587,210.515 127.711,210.742 127.344 C 210.845 127.177,210.623 127.065,210.250 127.095 C 209.874 127.125,209.618 126.917,209.678 126.631 C 209.737 126.347,209.597 126.230,209.368 126.372 C 208.820 126.710,207.748 125.811,208.072 125.286 C 208.217 125.052,208.135 124.996,207.881 125.153 C 207.343 125.486,205.756 124.702,206.040 124.243 C 206.151 124.063,205.936 123.940,205.562 123.970 C 205.189 123.999,204.925 123.810,204.976 123.549 C 205.033 123.257,204.821 123.170,204.423 123.323 C 203.956 123.502,203.866 123.428,204.098 123.053 C 204.309 122.712,204.266 122.629,203.975 122.809 C 203.410 123.159,201.857 122.347,202.158 121.860 C 202.286 121.653,202.093 121.605,201.714 121.751 C 201.262 121.924,201.135 121.860,201.323 121.555 C 201.512 121.250,201.384 121.187,200.933 121.360 C 200.481 121.533,200.354 121.470,200.542 121.165 C 200.731 120.860,200.603 120.796,200.152 120.969 C 199.700 121.143,199.572 121.079,199.761 120.774 C 199.949 120.469,199.822 120.405,199.370 120.579 C 198.919 120.752,198.791 120.688,198.980 120.383 C 199.168 120.078,199.041 120.015,198.589 120.188 C 198.137 120.361,198.010 120.298,198.198 119.993 C 198.387 119.688,198.259 119.624,197.808 119.797 C 197.356 119.971,197.229 119.907,197.417 119.602 C 197.606 119.297,197.478 119.233,197.027 119.407 C 196.575 119.580,196.447 119.516,196.636 119.211 C 196.824 118.907,196.697 118.843,196.245 119.016 C 195.754 119.204,195.661 119.135,195.895 118.756 C 196.108 118.410,196.064 118.332,195.760 118.520 C 195.167 118.886,193.673 118.409,193.960 117.945 C 194.082 117.748,193.880 117.703,193.511 117.844 C 193.020 118.033,192.926 117.963,193.160 117.584 C 193.374 117.238,193.329 117.160,193.026 117.348 C 192.387 117.742,190.949 117.220,191.266 116.708 C 191.423 116.454,191.344 116.398,191.068 116.569 C 190.500 116.920,187.809 116.074,188.083 115.630 C 188.193 115.452,187.903 115.406,187.439 115.528 C 186.899 115.669,186.689 115.599,186.854 115.332 C 187.018 115.066,186.808 114.996,186.268 115.137 C 185.727 115.278,185.517 115.208,185.682 114.942 C 185.846 114.675,185.636 114.605,185.096 114.746 C 184.468 114.911,184.334 114.836,184.570 114.454 C 184.787 114.103,184.735 114.036,184.404 114.240 C 183.745 114.647,180.417 113.680,180.732 113.172 C 180.878 112.936,180.788 112.889,180.515 113.058 C 180.259 113.216,177.814 112.809,175.083 112.153 C 165.939 109.956,155.082 108.397,141.992 107.399 C 136.609 106.989,104.122 106.622,96.875 106.889 M302.167 138.710 C 315.221 140.023,322.469 145.379,322.425 153.681 C 322.368 164.264,313.647 171.869,297.867 175.095 C 294.525 175.778,271.449 176.794,270.941 176.281 C 270.894 176.233,272.311 167.971,274.089 157.921 C 275.867 147.871,277.327 139.618,277.333 139.582 C 277.487 138.623,295.144 138.003,302.167 138.710 M131.641 140.799 C 133.682 141.120,136.742 141.740,138.441 142.176 C 140.141 142.612,141.601 142.969,141.687 142.969 C 141.773 142.969,141.744 143.128,141.624 143.323 C 141.504 143.518,141.784 143.578,142.248 143.457 C 142.876 143.293,143.010 143.367,142.774 143.749 C 142.557 144.100,142.609 144.168,142.938 143.964 C 143.594 143.559,146.951 144.873,146.622 145.406 C 146.475 145.644,146.547 145.711,146.788 145.562 C 147.314 145.236,150.041 146.493,149.768 146.935 C 149.658 147.112,149.870 147.141,150.239 146.999 C 150.661 146.838,150.815 146.895,150.654 147.155 C 150.509 147.390,150.692 147.545,151.078 147.514 C 151.454 147.485,151.710 147.692,151.650 147.978 C 151.591 148.263,151.718 148.387,151.932 148.255 C 152.476 147.919,154.346 149.214,154.038 149.712 C 153.888 149.955,153.975 150.004,154.254 149.831 C 154.838 149.470,155.941 150.334,155.599 150.886 C 155.454 151.122,155.537 151.176,155.798 151.014 C 156.349 150.674,160.597 154.593,160.453 155.308 C 160.397 155.583,160.456 155.776,160.584 155.736 C 161.075 155.584,162.135 156.790,161.946 157.284 C 161.836 157.570,161.960 157.761,162.221 157.710 C 162.482 157.659,162.671 157.923,162.642 158.297 C 162.612 158.670,162.735 158.885,162.915 158.774 C 163.374 158.490,164.158 160.077,163.825 160.615 C 163.645 160.907,163.728 160.949,164.069 160.738 C 164.443 160.507,164.518 160.596,164.338 161.064 C 164.186 161.462,164.272 161.674,164.565 161.616 C 164.828 161.565,165.026 161.907,165.010 162.383 C 164.994 162.858,165.155 163.135,165.369 163.002 C 165.601 162.859,165.654 163.033,165.501 163.433 C 165.359 163.802,165.404 164.004,165.601 163.882 C 166.066 163.595,166.542 165.089,166.176 165.682 C 165.989 165.984,166.067 166.030,166.407 165.820 C 166.789 165.584,166.864 165.718,166.700 166.346 C 166.558 166.886,166.628 167.096,166.895 166.932 C 167.161 166.767,167.231 166.977,167.090 167.518 C 166.969 167.981,167.014 168.271,167.191 168.162 C 167.537 167.948,168.092 170.213,168.798 174.717 C 169.384 178.462,169.007 187.363,168.040 192.578 C 167.021 198.081,165.620 203.168,165.197 202.906 C 165.008 202.790,164.955 202.959,165.079 203.284 C 165.403 204.127,164.482 206.705,163.971 206.389 C 163.719 206.233,163.665 206.313,163.835 206.588 C 164.201 207.181,163.330 209.842,162.864 209.554 C 162.669 209.433,162.625 209.636,162.766 210.005 C 162.954 210.496,162.885 210.589,162.506 210.355 C 162.153 210.137,162.082 210.186,162.282 210.510 C 162.671 211.140,161.742 213.342,161.222 213.021 C 160.997 212.881,160.933 212.958,161.077 213.192 C 161.406 213.724,160.547 215.671,160.104 215.397 C 159.923 215.285,159.890 215.495,160.032 215.864 C 160.220 216.355,160.150 216.449,159.772 216.215 C 159.431 216.004,159.348 216.046,159.528 216.338 C 159.904 216.946,159.048 218.445,158.514 218.115 C 158.256 217.956,158.193 218.027,158.356 218.291 C 158.689 218.829,157.905 220.416,157.446 220.132 C 157.267 220.021,157.144 220.236,157.173 220.610 C 157.202 220.983,157.028 221.252,156.784 221.207 C 156.541 221.161,156.365 221.425,156.394 221.793 C 156.422 222.160,156.246 222.424,156.003 222.379 C 155.760 222.333,155.584 222.597,155.612 222.965 C 155.641 223.332,155.431 223.585,155.147 223.525 C 154.862 223.466,154.723 223.570,154.837 223.755 C 155.129 224.226,153.932 225.843,153.493 225.572 C 153.296 225.450,153.226 225.590,153.339 225.883 C 153.537 226.400,152.103 228.040,151.644 227.821 C 151.519 227.762,151.372 228.012,151.319 228.378 C 151.185 229.288,147.580 232.835,146.651 232.972 C 146.237 233.033,145.930 233.241,145.968 233.436 C 146.088 234.043,144.802 235.194,144.243 234.979 C 143.949 234.867,143.809 234.936,143.932 235.134 C 144.203 235.573,142.585 236.769,142.114 236.478 C 141.929 236.364,141.826 236.503,141.885 236.787 C 141.944 237.072,141.691 237.281,141.324 237.253 C 140.956 237.225,140.693 237.400,140.738 237.644 C 140.783 237.887,140.520 238.063,140.152 238.034 C 139.784 238.006,139.521 238.182,139.566 238.425 C 139.611 238.668,139.343 238.843,138.969 238.814 C 138.595 238.784,138.381 238.907,138.492 239.087 C 138.775 239.546,137.189 240.330,136.650 239.997 C 136.383 239.832,136.315 239.897,136.479 240.162 C 136.818 240.711,130.626 243.894,129.820 243.585 C 129.510 243.466,129.356 243.529,129.478 243.726 C 129.765 244.191,128.271 244.667,127.678 244.301 C 127.405 244.133,127.328 244.190,127.484 244.443 C 127.801 244.955,126.363 245.477,125.724 245.082 C 125.422 244.895,125.376 244.973,125.587 245.314 C 125.823 245.695,125.688 245.770,125.061 245.606 C 124.520 245.465,124.310 245.535,124.475 245.801 C 124.639 246.067,124.429 246.138,123.889 245.996 C 123.425 245.875,123.133 245.916,123.239 246.088 C 123.443 246.419,119.196 247.653,114.648 248.584 C 103.262 250.914,82.668 250.848,83.371 248.484 C 83.475 248.136,86.387 231.768,89.844 212.109 C 93.300 192.451,96.806 172.588,97.634 167.969 C 98.463 163.350,99.786 155.791,100.574 151.172 C 102.324 140.910,102.229 141.170,104.365 140.809 C 110.521 139.769,125.065 139.763,131.641 140.799 M233.684 171.094 C 233.684 171.846,233.765 172.153,233.863 171.777 C 233.961 171.401,233.961 170.786,233.863 170.410 C 233.765 170.034,233.684 170.342,233.684 171.094 M168.450 178.516 C 168.450 179.268,168.530 179.575,168.629 179.199 C 168.727 178.823,168.727 178.208,168.629 177.832 C 168.530 177.456,168.450 177.764,168.450 178.516 M168.450 183.203 C 168.450 183.955,168.530 184.263,168.629 183.887 C 168.727 183.511,168.727 182.896,168.629 182.520 C 168.530 182.144,168.450 182.451,168.450 183.203 M289.852 208.766 C 306.991 211.048,315.770 218.411,314.067 229.074 C 311.919 242.518,298.877 250.424,276.615 251.775 C 271.687 252.074,258.990 251.658,258.204 251.172 C 257.785 250.913,263.674 214.999,265.106 209.082 L 265.319 208.203 275.531 208.211 C 282.027 208.216,287.238 208.417,289.852 208.766 M43.266 284.261 C 43.752 284.354,44.455 284.351,44.829 284.253 C 45.202 284.155,44.805 284.079,43.945 284.083 C 43.086 284.087,42.780 284.167,43.266 284.261 M53.027 284.651 C 53.511 284.744,54.302 284.744,54.785 284.651 C 55.269 284.558,54.873 284.481,53.906 284.481 C 52.939 284.481,52.544 284.558,53.027 284.651 M89.160 284.644 C 89.536 284.743,90.151 284.743,90.527 284.644 C 90.903 284.546,90.596 284.466,89.844 284.466 C 89.092 284.466,88.784 284.546,89.160 284.644 " stroke="none" fill-rule="evenodd" fill="#115691"/>
    <path id="path2" d="M298.646 223.145 C 298.559 223.413,298.026 225.188,297.462 227.088 C 296.898 228.988,295.923 231.877,295.295 233.507 C 293.927 237.061,293.942 237.088,296.493 235.700 C 301.106 233.189,304.253 227.756,302.576 225.196 C 301.458 223.490,298.956 222.184,298.646 223.145 M358.198 274.854 C 332.787 290.997,287.697 298.200,227.056 295.803 C 219.388 295.500,213.156 295.698,212.592 296.262 C 212.438 296.416,218.803 371.252,218.988 371.451 C 219.611 372.120,236.871 369.348,245.862 367.135 C 294.110 355.258,334.119 323.649,358.182 278.397 C 361.021 273.058,361.021 273.060,358.198 274.854 " stroke="none" fill="#cb1c1e" fill-rule="evenodd"/>
    <path id="path3" d="M 218 39 L 217.5 50.7 L 217.5 54.6 C 217.125 56.021 217.369 58.088 217.168 57.227 C 217.017 56.582 216.954 57.549 217.028 59.375 C 217.119 61.661 217.057 62.33 216.828 61.523 C 216.598 60.712 216.54 61.313 216.641 63.477 C 216.741 65.643 216.678 66.302 216.434 65.625 C 216.19 64.95 216.134 65.553 216.251 67.578 C 216.373 69.703 216.312 70.293 216.028 69.727 C 215.749 69.169 215.706 69.717 215.877 71.637 C 216.065 73.731 216.01 74.262 215.632 74.028 C 215.253 73.794 215.209 74.266 215.43 76.172 C 215.651 78.079 215.606 78.55 215.227 78.316 C 214.848 78.082 214.801 78.506 215.015 80.218 C 215.217 81.835 215.165 82.422 214.817 82.422 C 214.48 82.422 214.41 82.977 214.574 84.364 C 214.701 85.432 214.667 86.391 214.499 86.495 C 214.185 86.689 213.055 99.125 213.326 99.391 C 213.409 99.472 216.553 99.125 220.313 98.62 C 257.416 93.64 329.105 93.676 345.073 98.684 C 348.615 99.794 325.727 74.604 315.234 65.843 C 301.018 53.974 271.893 36.979 265.768 36.979 C 265.474 36.979 265.234 36.814 265.234 36.612 C 265.234 36.41 264.971 36.346 264.648 36.469 C 264.326 36.593 264.063 36.505 264.063 36.274 C 264.063 36.043 263.799 35.955 263.477 36.079 C 263.154 36.202 262.891 36.139 262.891 35.938 C 262.891 35.736 262.598 35.684 262.241 35.821 C 261.778 35.998 261.68 35.926 261.899 35.571 C 262.13 35.198 261.987 35.143 261.328 35.352 C 260.69 35.554 260.529 35.501 260.742 35.156 C 260.955 34.812 260.795 34.758 260.156 34.961 C 259.518 35.164 259.357 35.11 259.57 34.766 C 259.783 34.421 259.623 34.368 258.984 34.57 C 258.346 34.773 258.186 34.72 258.398 34.375 C 258.611 34.03 258.451 33.977 257.813 34.18 C 257.174 34.382 257.014 34.329 257.227 33.984 C 257.439 33.64 257.279 33.586 256.641 33.789 C 256.002 33.992 255.842 33.938 256.055 33.594 C 256.265 33.253 256.114 33.194 255.518 33.383 C 255.059 33.528 254.688 33.476 254.688 33.266 C 254.688 33.057 254.308 32.985 253.845 33.106 C 253.232 33.266 253.086 33.192 253.308 32.832 C 253.536 32.464 253.389 32.409 252.734 32.617 C 252.12 32.812 251.939 32.761 252.132 32.448 C 252.328 32.131 252.097 32.078 251.342 32.268 C 250.666 32.437 250.363 32.392 250.516 32.145 C 250.663 31.907 250.342 31.82 249.695 31.923 C 248.858 32.057 248.757 32.003 249.219 31.672 C 249.663 31.352 249.475 31.306 248.438 31.479 C 247.396 31.652 247.21 31.606 247.656 31.283 C 248.103 30.961 247.916 30.915 246.875 31.088 C 245.834 31.262 245.647 31.215 246.094 30.893 C 246.54 30.571 246.354 30.524 245.313 30.697 C 244.477 30.837 244.132 30.791 244.427 30.581 C 244.738 30.358 244.392 30.242 243.45 30.253 C 242.648 30.263 242.064 29.815 240.6 29.5 L 239.1 29 L 219 26 M 287.621 106.152 C 290.588 106.218 295.334 106.218 298.168 106.151 C 301.002 106.085 298.574 106.03 292.773 106.03 C 286.973 106.031 284.654 106.085 287.621 106.152 M 267.487 106.533 C 268.19 106.62 269.244 106.618 269.831 106.529 C 270.418 106.44 269.844 106.369 268.555 106.371 C 267.266 106.373 266.785 106.446 267.487 106.533 M 313.184 106.526 C 313.667 106.619 314.458 106.619 314.941 106.526 C 315.425 106.433 315.029 106.356 314.063 106.356 C 313.096 106.356 312.7 106.433 313.184 106.526 M 257.324 106.916 C 257.808 107.009 258.599 107.009 259.082 106.916 C 259.565 106.823 259.17 106.747 258.203 106.747 C 257.236 106.747 256.841 106.823 257.324 106.916 M 249.516 107.308 C 250.002 107.401 250.705 107.397 251.079 107.3 C 251.452 107.202 251.055 107.125 250.195 107.13 C 249.336 107.134 249.03 107.214 249.516 107.308 M 243.066 107.691 C 243.442 107.789 244.058 107.789 244.434 107.691 C 244.81 107.593 244.502 107.513 243.75 107.513 C 242.998 107.513 242.69 107.593 243.066 107.691 M 291.131 138.572 C 292.806 138.645 295.443 138.645 296.991 138.571 C 298.538 138.497 297.168 138.437 293.945 138.437 C 290.723 138.438 289.456 138.499 291.131 138.572 M 384.883 145.313 C 384.883 146.494 384.956 146.978 385.045 146.387 C 385.135 145.796 385.135 144.829 385.045 144.238 C 384.956 143.647 384.883 144.131 384.883 145.313 M 317.578 143.872 C 317.578 143.939 318.149 144.511 318.848 145.142 L 320.117 146.289 L 318.97 145.02 C 317.9 143.836 317.578 143.57 317.578 143.872 M 288.672 149.81 C 288.672 149.921 289.788 152.25 291.153 154.986 C 292.517 157.722 293.949 160.802 294.335 161.829 C 295.252 164.266 295.187 164.246 298.929 163.297 C 310.104 160.463 315.035 153.491 307.509 151.167 C 303.577 149.952 288.672 148.879 288.672 149.81 M 322.364 153.711 C 322.368 154.57 322.448 154.876 322.542 154.39 C 322.635 153.904 322.632 153.201 322.534 152.827 C 322.436 152.454 322.36 152.852 322.364 153.711 M 316.776 166.309 L 315.43 167.773 L 316.895 166.427 C 318.258 165.174 318.539 164.844 318.241 164.844 C 318.175 164.844 317.516 165.503 316.776 166.309 M 245.074 175.195 C 245.074 177.988 245.137 179.08 245.212 177.62 C 245.287 176.161 245.287 173.876 245.211 172.542 C 245.135 171.209 245.073 172.402 245.074 175.195 M 378.644 225.195 C 378.646 226.699 378.716 227.267 378.801 226.456 C 378.885 225.646 378.884 224.415 378.798 223.722 C 378.711 223.028 378.642 223.691 378.644 225.195 M 314.153 226.563 C 314.153 227.314 314.234 227.622 314.332 227.246 C 314.43 226.87 314.43 226.255 314.332 225.879 C 314.234 225.503 314.153 225.811 314.153 226.563 M 268.084 251.853 C 269.759 251.927 272.396 251.926 273.944 251.852 C 275.491 251.778 274.121 251.718 270.898 251.719 C 267.676 251.719 266.409 251.78 268.084 251.853 M 212.292 254.395 L 209.961 256.836 L 212.402 254.504 C 213.745 253.222 214.844 252.123 214.844 252.063 C 214.844 251.774 214.458 252.127 212.292 254.395 M 208.691 283.863 C 209.067 283.961 209.683 283.961 210.059 283.863 C 210.435 283.765 210.127 283.684 209.375 283.684 C 208.623 283.684 208.315 283.765 208.691 283.863 M 215.532 284.261 C 216.018 284.354 216.721 284.351 217.094 284.253 C 217.468 284.155 217.07 284.079 216.211 284.083 C 215.352 284.087 215.046 284.167 215.532 284.261 M 276.27 284.254 C 276.646 284.352 277.261 284.352 277.637 284.254 C 278.013 284.155 277.705 284.075 276.953 284.075 C 276.201 284.075 275.894 284.155 276.27 284.254 M 225.3 284.658 C 226.002 284.745 227.057 284.743 227.644 284.654 C 228.231 284.565 227.656 284.494 226.367 284.496 C 225.078 284.498 224.598 284.571 225.3 284.658 M 267.681 284.655 C 268.275 284.745 269.154 284.743 269.634 284.65 C 270.115 284.557 269.629 284.484 268.555 284.487 C 267.48 284.49 267.087 284.566 267.681 284.655 M 244.824 285.057 C 246.812 285.128 250.063 285.128 252.051 285.057 C 254.038 284.986 252.412 284.928 248.438 284.928 C 244.463 284.928 242.837 284.986 244.824 285.057" stroke="none" fill-rule="evenodd" fill="#2f9bd2" style=""/>
    <path id="path4" d="M181.571 26.954 C 136.783 32.891,95.552 56.633,67.643 92.556 C 65.900 94.799,64.534 96.695,64.607 96.769 C 64.681 96.842,68.939 96.633,74.070 96.304 C 121.100 93.288,157.108 95.156,182.161 101.912 C 186.322 103.034,186.450 103.044,189.779 102.521 C 191.641 102.228,193.867 101.936,194.727 101.873 C 196.253 101.760,196.287 101.726,196.186 100.391 C 195.693 93.825,190.195 29.108,190.021 27.832 C 189.751 25.843,189.866 25.855,181.571 26.954 M112.885 151.814 C 112.429 151.938,111.530 156.311,108.957 170.909 L 105.620 189.844 106.716 189.844 C 107.729 189.844,107.813 189.728,107.813 188.332 C 107.813 181.660,112.026 166.745,116.643 157.074 C 118.017 154.197,119.141 151.781,119.141 151.703 C 119.141 151.513,113.631 151.611,112.885 151.814 M231.548 295.979 C 232.033 296.073,232.737 296.069,233.110 295.972 C 233.483 295.874,233.086 295.797,232.227 295.802 C 231.367 295.806,231.062 295.886,231.548 295.979 M262.407 295.979 C 262.893 296.073,263.596 296.069,263.969 295.972 C 264.343 295.874,263.945 295.797,263.086 295.802 C 262.227 295.806,261.921 295.886,262.407 295.979 " stroke="none" fill="#f39518" fill-rule="evenodd"/>
    <path id="path5" d="M103.707 207.697 L 102.531 207.848 100.020 222.186 C 98.638 230.071,97.440 236.965,97.356 237.504 L 97.204 238.484 102.109 238.210 C 106.478 237.965,113.967 236.945,114.373 236.538 C 114.458 236.454,113.879 234.658,113.088 232.548 C 110.649 226.045,109.177 219.676,107.572 208.691 C 107.374 207.337,107.091 207.264,103.707 207.697 M154.680 286.582 C 133.686 292.627,109.676 295.580,78.232 295.984 L 61.347 296.200 62.021 297.342 C 62.392 297.971,64.172 300.451,65.977 302.855 C 94.352 340.645,136.525 365.112,183.310 370.927 C 186.269 371.295,188.763 371.524,188.851 371.436 C 188.990 371.296,195.703 298.125,195.703 296.744 C 195.703 296.370,194.343 296.026,190.972 295.549 C 181.623 294.227,171.496 291.181,163.085 287.163 L 159.164 285.290 154.680 286.582 " stroke="none" fill="#208e33" fill-rule="evenodd"/>
    <path id="path6" d="M326.367 76.172 C 328.723 78.535,330.739 80.469,330.846 80.469 C 330.953 80.469,329.114 78.535,326.758 76.172 C 324.402 73.809,322.386 71.875,322.279 71.875 C 322.172 71.875,324.011 73.809,326.367 76.172 M273.355 95.211 C 274.706 95.288,276.816 95.287,278.043 95.210 C 279.270 95.133,278.164 95.070,275.586 95.071 C 273.008 95.072,272.004 95.135,273.355 95.211 M307.324 95.210 C 308.452 95.289,310.298 95.289,311.426 95.210 C 312.554 95.131,311.631 95.066,309.375 95.066 C 307.119 95.066,306.196 95.131,307.324 95.210 M261.222 95.594 C 261.915 95.681,263.146 95.682,263.956 95.598 C 264.767 95.513,264.199 95.442,262.695 95.441 C 261.191 95.439,260.528 95.508,261.222 95.594 M317.676 95.592 C 318.267 95.682,319.233 95.682,319.824 95.592 C 320.415 95.503,319.932 95.430,318.750 95.430 C 317.568 95.430,317.085 95.503,317.676 95.592 M252.644 95.986 C 253.346 96.073,254.400 96.071,254.987 95.982 C 255.574 95.893,255.000 95.822,253.711 95.824 C 252.422 95.826,251.942 95.899,252.644 95.986 M323.735 95.979 C 324.221 96.073,324.924 96.069,325.298 95.972 C 325.671 95.874,325.273 95.797,324.414 95.802 C 323.555 95.806,323.249 95.886,323.735 95.979 M245.806 96.374 C 246.400 96.464,247.279 96.461,247.759 96.369 C 248.240 96.276,247.754 96.203,246.680 96.205 C 245.605 96.208,245.212 96.284,245.806 96.374 M240.141 96.761 C 240.627 96.854,241.330 96.851,241.704 96.753 C 242.077 96.655,241.680 96.579,240.820 96.583 C 239.961 96.587,239.655 96.667,240.141 96.761 M234.863 97.144 C 235.239 97.243,235.854 97.243,236.230 97.144 C 236.606 97.046,236.299 96.966,235.547 96.966 C 234.795 96.966,234.487 97.046,234.863 97.144 M100.098 106.144 C 100.903 106.228,102.222 106.228,103.027 106.144 C 103.833 106.060,103.174 105.991,101.563 105.991 C 99.951 105.991,99.292 106.060,100.098 106.144 M128.223 106.139 C 128.813 106.229,129.780 106.229,130.371 106.139 C 130.962 106.050,130.479 105.976,129.297 105.976 C 128.115 105.976,127.632 106.050,128.223 106.139 M276.465 106.147 C 277.593 106.226,279.438 106.226,280.566 106.147 C 281.694 106.068,280.771 106.004,278.516 106.004 C 276.260 106.004,275.337 106.068,276.465 106.147 M304.797 106.147 C 305.824 106.228,307.406 106.227,308.313 106.145 C 309.219 106.063,308.379 105.997,306.445 105.998 C 304.512 105.999,303.770 106.066,304.797 106.147 M88.184 106.526 C 88.667 106.619,89.458 106.619,89.941 106.526 C 90.425 106.433,90.029 106.356,89.063 106.356 C 88.096 106.356,87.700 106.433,88.184 106.526 M263.191 106.533 C 263.893 106.620,264.947 106.618,265.534 106.529 C 266.121 106.440,265.547 106.369,264.258 106.371 C 262.969 106.373,262.488 106.446,263.191 106.533 M316.313 106.526 C 316.799 106.620,317.502 106.616,317.876 106.518 C 318.249 106.421,317.852 106.344,316.992 106.349 C 316.133 106.353,315.827 106.433,316.313 106.526 M79.785 106.910 C 80.161 107.008,80.776 107.008,81.152 106.910 C 81.528 106.812,81.221 106.731,80.469 106.731 C 79.717 106.731,79.409 106.812,79.785 106.910 M254.009 106.921 C 254.603 107.011,255.482 107.008,255.962 106.916 C 256.443 106.823,255.957 106.749,254.883 106.752 C 253.809 106.755,253.416 106.831,254.009 106.921 M246.973 107.301 C 247.349 107.399,247.964 107.399,248.340 107.301 C 248.716 107.202,248.408 107.122,247.656 107.122 C 246.904 107.122,246.597 107.202,246.973 107.301 M217.383 132.813 C 218.222 133.672,218.996 134.375,219.104 134.375 C 219.211 134.375,218.613 133.672,217.773 132.813 C 216.934 131.953,216.160 131.250,216.052 131.250 C 215.945 131.250,216.544 131.953,217.383 132.813 M283.691 138.941 C 284.067 139.039,284.683 139.039,285.059 138.941 C 285.435 138.843,285.127 138.763,284.375 138.763 C 283.623 138.763,283.315 138.843,283.691 138.941 M112.793 140.901 C 113.276 140.994,114.067 140.994,114.551 140.901 C 115.034 140.808,114.639 140.731,113.672 140.731 C 112.705 140.731,112.310 140.808,112.793 140.901 M122.954 140.901 C 123.440 140.995,124.143 140.991,124.516 140.893 C 124.890 140.796,124.492 140.719,123.633 140.724 C 122.773 140.728,122.468 140.808,122.954 140.901 M300.098 149.879 C 300.474 149.977,301.089 149.977,301.465 149.879 C 301.841 149.780,301.533 149.700,300.781 149.700 C 300.029 149.700,299.722 149.780,300.098 149.879 M157.031 152.466 C 157.031 152.533,157.603 153.104,158.301 153.736 L 159.570 154.883 158.423 153.613 C 157.354 152.430,157.031 152.164,157.031 152.466 M234.101 175.391 C 234.101 176.572,234.175 177.056,234.264 176.465 C 234.354 175.874,234.354 174.907,234.264 174.316 C 234.175 173.726,234.101 174.209,234.101 175.391 M287.798 176.058 C 288.283 176.151,288.987 176.147,289.360 176.050 C 289.733 175.952,289.336 175.875,288.477 175.880 C 287.617 175.884,287.312 175.964,287.798 176.058 M376.563 183.305 C 376.563 183.647,376.255 184.007,375.879 184.106 C 375.238 184.273,375.239 184.287,375.891 184.330 C 376.597 184.376,377.252 183.372,376.806 182.926 C 376.672 182.792,376.563 182.962,376.563 183.305 M368.359 202.075 C 368.359 202.143,368.931 202.714,369.629 203.345 L 370.898 204.492 369.751 203.223 C 368.682 202.039,368.359 201.774,368.359 202.075 M280.753 208.485 C 281.446 208.571,282.677 208.573,283.487 208.488 C 284.298 208.404,283.730 208.333,282.227 208.331 C 280.723 208.330,280.060 208.399,280.753 208.485 M204.297 246.680 C 202.696 248.291,201.475 249.609,201.582 249.609 C 201.689 249.609,203.087 248.291,204.688 246.680 C 206.288 245.068,207.510 243.750,207.402 243.750 C 207.295 243.750,205.897 245.068,204.297 246.680 M88.770 249.499 C 89.360 249.588,90.327 249.588,90.918 249.499 C 91.509 249.409,91.025 249.336,89.844 249.336 C 88.662 249.336,88.179 249.409,88.770 249.499 M99.322 249.499 C 99.916 249.589,100.794 249.586,101.275 249.494 C 101.755 249.401,101.270 249.328,100.195 249.330 C 99.121 249.333,98.728 249.409,99.322 249.499 M260.254 251.441 C 260.630 251.539,261.245 251.539,261.621 251.441 C 261.997 251.343,261.689 251.263,260.938 251.263 C 260.186 251.263,259.878 251.343,260.254 251.441 M364.630 255.957 L 363.086 257.617 364.746 256.073 C 365.659 255.224,366.406 254.477,366.406 254.413 C 366.406 254.117,366.066 254.413,364.630 255.957 M200.879 283.472 C 201.255 283.571,201.870 283.571,202.246 283.472 C 202.622 283.374,202.314 283.294,201.563 283.294 C 200.811 283.294,200.503 283.374,200.879 283.472 M206.348 283.863 C 206.724 283.961,207.339 283.961,207.715 283.863 C 208.091 283.765,207.783 283.684,207.031 283.684 C 206.279 283.684,205.972 283.765,206.348 283.863 M212.798 284.261 C 213.283 284.354,213.987 284.351,214.360 284.253 C 214.733 284.155,214.336 284.079,213.477 284.083 C 212.617 284.087,212.312 284.167,212.798 284.261 M278.613 284.254 C 278.989 284.352,279.604 284.352,279.980 284.254 C 280.356 284.155,280.049 284.075,279.297 284.075 C 278.545 284.075,278.237 284.155,278.613 284.254 M46.782 284.651 C 47.268 284.745,47.971 284.741,48.344 284.643 C 48.718 284.546,48.320 284.469,47.461 284.474 C 46.602 284.478,46.296 284.558,46.782 284.651 M221.191 284.655 C 221.782 284.744,222.749 284.744,223.340 284.655 C 223.931 284.565,223.447 284.492,222.266 284.492 C 221.084 284.492,220.601 284.565,221.191 284.655 M271.197 284.655 C 271.791 284.745,272.669 284.743,273.150 284.650 C 273.630 284.557,273.145 284.484,272.070 284.487 C 270.996 284.490,270.603 284.566,271.197 284.655 M58.691 285.050 C 59.497 285.134,60.815 285.134,61.621 285.050 C 62.427 284.966,61.768 284.897,60.156 284.897 C 58.545 284.897,57.886 284.966,58.691 285.050 M83.496 285.048 C 84.194 285.135,85.337 285.135,86.035 285.048 C 86.733 284.962,86.162 284.891,84.766 284.891 C 83.369 284.891,82.798 284.962,83.496 285.048 M234.277 285.055 C 235.620 285.131,237.817 285.131,239.160 285.055 C 240.503 284.979,239.404 284.916,236.719 284.916 C 234.033 284.916,232.935 284.979,234.277 285.055 M257.534 285.055 C 258.777 285.132,260.711 285.132,261.831 285.053 C 262.951 284.974,261.934 284.911,259.570 284.912 C 257.207 284.913,256.291 284.977,257.534 285.055 M93.457 295.582 C 93.833 295.680,94.448 295.680,94.824 295.582 C 95.200 295.484,94.893 295.403,94.141 295.403 C 93.389 295.403,93.081 295.484,93.457 295.582 M63.391 295.991 C 64.418 296.071,66.000 296.070,66.906 295.989 C 67.813 295.907,66.973 295.841,65.039 295.842 C 63.105 295.843,62.364 295.910,63.391 295.991 M79.797 295.991 C 80.824 296.071,82.406 296.070,83.313 295.989 C 84.219 295.907,83.379 295.841,81.445 295.842 C 79.512 295.843,78.770 295.910,79.797 295.991 M237.603 295.983 C 238.197 296.073,239.076 296.071,239.556 295.978 C 240.037 295.885,239.551 295.812,238.477 295.815 C 237.402 295.818,237.009 295.894,237.603 295.983 M257.719 295.979 C 258.205 296.073,258.908 296.069,259.282 295.972 C 259.655 295.874,259.258 295.797,258.398 295.802 C 257.539 295.806,257.233 295.886,257.719 295.979 " stroke="none" fill="#84c2cc" fill-rule="evenodd"/>
    <path id="path7" d="M94.922 106.489 C 79.787 107.163,72.628 107.568,64.355 108.218 C 54.769 108.970,47.608 109.683,47.384 109.907 C 47.284 110.008,31.487 199.329,20.674 260.938 C 18.732 272.002,17.062 281.336,16.962 281.680 C 16.810 282.206,17.322 282.345,20.207 282.560 C 114.742 289.616,168.380 279.639,202.109 248.726 C 230.171 223.007,242.076 175.791,227.706 147.210 C 215.897 123.723,189.170 110.926,143.750 107.013 C 139.136 106.616,101.215 106.209,94.922 106.489 M141.992 107.399 C 212.381 112.763,241.826 141.514,231.246 194.549 C 220.707 247.383,179.912 276.344,106.641 283.009 C 85.158 284.963,20.316 283.974,17.846 281.655 C 17.569 281.395,20.555 263.958,30.122 209.961 C 31.416 202.656,32.737 195.186,33.058 193.359 C 33.379 191.533,36.795 172.149,40.649 150.282 C 44.503 128.416,47.656 110.465,47.656 110.392 C 47.656 109.740,77.854 107.591,96.875 106.889 C 104.122 106.622,136.609 106.989,141.992 107.399 M109.762 140.213 C 101.574 140.900,102.518 139.774,100.574 151.172 C 99.786 155.791,98.463 163.350,97.634 167.969 C 96.806 172.588,93.300 192.451,89.844 212.109 C 86.387 231.768,83.475 248.136,83.371 248.484 C 82.532 251.303,106.296 250.776,118.408 247.705 C 145.524 240.832,162.626 221.890,168.006 192.773 C 174.574 157.227,151.806 136.681,109.762 140.213 M126.212 140.800 C 154.594 142.179,171.053 159.944,168.383 186.317 C 164.804 221.670,142.907 244.708,108.789 249.014 C 103.523 249.678,84.781 249.757,84.143 249.118 C 83.923 248.897,97.636 169.666,102.221 144.668 L 102.805 141.484 104.625 141.199 C 106.835 140.853,118.334 140.340,120.508 140.490 C 121.367 140.550,123.934 140.689,126.212 140.800 " stroke="none" fill="#0d2855" fill-rule="evenodd"/>
    <path id="path8" d="M110.083 106.152 C 113.372 106.217,118.646 106.217,121.801 106.151 C 124.957 106.086,122.266 106.032,115.820 106.032 C 109.375 106.033,106.793 106.086,110.083 106.152 M91.309 106.526 C 91.792 106.619,92.583 106.619,93.066 106.526 C 93.550 106.433,93.154 106.356,92.188 106.356 C 91.221 106.356,90.825 106.433,91.309 106.526 M135.645 106.519 C 136.021 106.618,136.636 106.618,137.012 106.519 C 137.388 106.421,137.080 106.341,136.328 106.341 C 135.576 106.341,135.269 106.421,135.645 106.519 M82.129 106.910 C 82.505 107.008,83.120 107.008,83.496 106.910 C 83.872 106.812,83.564 106.731,82.813 106.731 C 82.061 106.731,81.753 106.812,82.129 106.910 M75.098 107.301 C 75.474 107.399,76.089 107.399,76.465 107.301 C 76.841 107.202,76.533 107.122,75.781 107.122 C 75.029 107.122,74.722 107.202,75.098 107.301 M168.450 180.859 C 168.450 181.611,168.530 181.919,168.629 181.543 C 168.727 181.167,168.727 180.552,168.629 180.176 C 168.530 179.800,168.450 180.107,168.450 180.859 M148.621 230.566 L 146.289 233.008 148.730 230.676 C 150.073 229.394,151.172 228.295,151.172 228.235 C 151.172 227.946,150.786 228.299,148.621 230.566 M98.340 238.557 C 98.823 238.650,99.614 238.650,100.098 238.557 C 100.581 238.464,100.186 238.388,99.219 238.388 C 98.252 238.388,97.856 238.464,98.340 238.557 M40.723 284.254 C 41.099 284.352,41.714 284.352,42.090 284.254 C 42.466 284.155,42.158 284.075,41.406 284.075 C 40.654 284.075,40.347 284.155,40.723 284.254 M49.712 284.655 C 50.306 284.745,51.185 284.743,51.666 284.650 C 52.146 284.557,51.660 284.484,50.586 284.487 C 49.512 284.490,49.119 284.566,49.712 284.655 M91.699 284.651 C 92.183 284.744,92.974 284.744,93.457 284.651 C 93.940 284.558,93.545 284.481,92.578 284.481 C 91.611 284.481,91.216 284.558,91.699 284.651 M67.676 285.058 C 70.415 285.125,74.897 285.125,77.637 285.058 C 80.376 284.990,78.135 284.935,72.656 284.935 C 67.178 284.935,64.937 284.990,67.676 285.058 M85.645 295.983 C 86.235 296.072,87.202 296.072,87.793 295.983 C 88.384 295.893,87.900 295.820,86.719 295.820 C 85.537 295.820,85.054 295.893,85.645 295.983 M234.277 295.979 C 234.761 296.072,235.552 296.072,236.035 295.979 C 236.519 295.886,236.123 295.810,235.156 295.810 C 234.189 295.810,233.794 295.886,234.277 295.979 M82.031 321.680 C 83.415 323.076,84.636 324.219,84.743 324.219 C 84.850 324.219,83.806 323.076,82.422 321.680 C 81.038 320.283,79.817 319.141,79.710 319.141 C 79.603 319.141,80.647 320.283,82.031 321.680 " stroke="none" fill="#70949c" fill-rule="evenodd"/>
  </g>
</svg>